<?xml version="1.0" standalone="no"?>
<!DOCTYPE svg PUBLIC " -//W3C//DTD SVG 1.1//EN" "http://www.w3.org/Graphics/SVG/1.1/DTD/svg11.dtd">
<svg width = "85mm" height = "85mm" version = "1.1" xmlns="http://www.w3.org/2000/svg">

<rect x="5mm" y="5mm" width="5mm" height="5mm" fill="none" stroke="black" stroke-width = "0.143mm" />
<text x="5.21428572386503mm" y="6.07142857462168mm" fill="black" font-family="sans-serif" font-size="1mm">1</text>
<rect x="10mm" y="5mm" width="5mm" height="5mm" fill="none" stroke="black" stroke-width = "0.143mm" />
<text x="10.214285723865mm" y="6.07142857462168mm" fill="black" font-family="sans-serif" font-size="1mm">2</text>
<rect x="15mm" y="5mm" width="5mm" height="5mm" fill="none" stroke="black" stroke-width = "0.143mm" />
<text x="15.214285723865mm" y="6.07142857462168mm" fill="black" font-family="sans-serif" font-size="1mm">3</text>
<rect x="20mm" y="5mm" width="5mm" height="5mm" fill="none" stroke="black" stroke-width = "0.143mm" />
<text x="20.214285723865mm" y="6.07142857462168mm" fill="black" font-family="sans-serif" font-size="1mm">4</text>
<rect x="25mm" y="5mm" width="5mm" height="5mm" fill="none" stroke="black" stroke-width = "0.143mm" />
<text x="25.214285723865mm" y="6.07142857462168mm" fill="black" font-family="sans-serif" font-size="1mm">5</text>
<rect x="30mm" y="5mm" width="5mm" height="5mm" fill="none" stroke="black" stroke-width = "0.143mm" />
<text x="30.214285723865mm" y="6.07142857462168mm" fill="black" font-family="sans-serif" font-size="1mm">6</text>
<rect x="35mm" y="5mm" width="5mm" height="5mm" fill="none" stroke="black" stroke-width = "0.143mm" />
<text x="35.214285723865mm" y="6.07142857462168mm" fill="black" font-family="sans-serif" font-size="1mm">7</text>
<rect x="40mm" y="5mm" width="5mm" height="5mm" fill="black" stroke="black" stroke-width = "0.143mm" />
<rect x="45mm" y="5mm" width="5mm" height="5mm" fill="none" stroke="black" stroke-width = "0.143mm" />
<text x="45.214285723865mm" y="6.07142857462168mm" fill="black" font-family="sans-serif" font-size="1mm">8</text>
<rect x="50mm" y="5mm" width="5mm" height="5mm" fill="none" stroke="black" stroke-width = "0.143mm" />
<text x="50.214285723865mm" y="6.07142857462168mm" fill="black" font-family="sans-serif" font-size="1mm">9</text>
<rect x="55mm" y="5mm" width="5mm" height="5mm" fill="none" stroke="black" stroke-width = "0.143mm" />
<text x="55.214285723865mm" y="6.07142857462168mm" fill="black" font-family="sans-serif" font-size="1mm">10</text>
<rect x="60mm" y="5mm" width="5mm" height="5mm" fill="black" stroke="black" stroke-width = "0.143mm" />
<rect x="65mm" y="5mm" width="5mm" height="5mm" fill="none" stroke="black" stroke-width = "0.143mm" />
<text x="65.214285723865mm" y="6.07142857462168mm" fill="black" font-family="sans-serif" font-size="1mm">11</text>
<rect x="70mm" y="5mm" width="5mm" height="5mm" fill="none" stroke="black" stroke-width = "0.143mm" />
<text x="70.214285723865mm" y="6.07142857462168mm" fill="black" font-family="sans-serif" font-size="1mm">12</text>
<rect x="75mm" y="5mm" width="5mm" height="5mm" fill="none" stroke="black" stroke-width = "0.143mm" />
<text x="75.214285723865mm" y="6.07142857462168mm" fill="black" font-family="sans-serif" font-size="1mm">13</text>

<rect x="5mm" y="10mm" width="5mm" height="5mm" fill="none" stroke="black" stroke-width = "0.143mm" />
<text x="5.21428572386503mm" y="11.0714285746217mm" fill="black" font-family="sans-serif" font-size="1mm">14</text>
<rect x="10mm" y="10mm" width="5mm" height="5mm" fill="none" stroke="black" stroke-width = "0.143mm" />
<rect x="15mm" y="10mm" width="5mm" height="5mm" fill="none" stroke="black" stroke-width = "0.143mm" />
<rect x="20mm" y="10mm" width="5mm" height="5mm" fill="none" stroke="black" stroke-width = "0.143mm" />
<rect x="25mm" y="10mm" width="5mm" height="5mm" fill="none" stroke="black" stroke-width = "0.143mm" />
<rect x="30mm" y="10mm" width="5mm" height="5mm" fill="none" stroke="black" stroke-width = "0.143mm" />
<rect x="35mm" y="10mm" width="5mm" height="5mm" fill="none" stroke="black" stroke-width = "0.143mm" />
<rect x="40mm" y="10mm" width="5mm" height="5mm" fill="black" stroke="black" stroke-width = "0.143mm" />
<rect x="45mm" y="10mm" width="5mm" height="5mm" fill="none" stroke="black" stroke-width = "0.143mm" />
<text x="45.214285723865mm" y="11.0714285746217mm" fill="black" font-family="sans-serif" font-size="1mm">15</text>
<rect x="50mm" y="10mm" width="5mm" height="5mm" fill="none" stroke="black" stroke-width = "0.143mm" />
<rect x="55mm" y="10mm" width="5mm" height="5mm" fill="none" stroke="black" stroke-width = "0.143mm" />
<rect x="60mm" y="10mm" width="5mm" height="5mm" fill="none" stroke="black" stroke-width = "0.143mm" />
<text x="60.214285723865mm" y="11.0714285746217mm" fill="black" font-family="sans-serif" font-size="1mm">16</text>
<rect x="65mm" y="10mm" width="5mm" height="5mm" fill="none" stroke="black" stroke-width = "0.143mm" />
<rect x="70mm" y="10mm" width="5mm" height="5mm" fill="none" stroke="black" stroke-width = "0.143mm" />
<rect x="75mm" y="10mm" width="5mm" height="5mm" fill="none" stroke="black" stroke-width = "0.143mm" />

<rect x="5mm" y="15mm" width="5mm" height="5mm" fill="none" stroke="black" stroke-width = "0.143mm" />
<text x="5.21428572386503mm" y="16.0714285746217mm" fill="black" font-family="sans-serif" font-size="1mm">17</text>
<rect x="10mm" y="15mm" width="5mm" height="5mm" fill="none" stroke="black" stroke-width = "0.143mm" />
<rect x="15mm" y="15mm" width="5mm" height="5mm" fill="none" stroke="black" stroke-width = "0.143mm" />
<rect x="20mm" y="15mm" width="5mm" height="5mm" fill="none" stroke="black" stroke-width = "0.143mm" />
<rect x="25mm" y="15mm" width="5mm" height="5mm" fill="none" stroke="black" stroke-width = "0.143mm" />
<rect x="30mm" y="15mm" width="5mm" height="5mm" fill="none" stroke="black" stroke-width = "0.143mm" />
<rect x="35mm" y="15mm" width="5mm" height="5mm" fill="none" stroke="black" stroke-width = "0.143mm" />
<rect x="40mm" y="15mm" width="5mm" height="5mm" fill="black" stroke="black" stroke-width = "0.143mm" />
<rect x="45mm" y="15mm" width="5mm" height="5mm" fill="none" stroke="black" stroke-width = "0.143mm" />
<text x="45.214285723865mm" y="16.0714285746217mm" fill="black" font-family="sans-serif" font-size="1mm">18</text>
<rect x="50mm" y="15mm" width="5mm" height="5mm" fill="none" stroke="black" stroke-width = "0.143mm" />
<rect x="55mm" y="15mm" width="5mm" height="5mm" fill="none" stroke="black" stroke-width = "0.143mm" />
<rect x="60mm" y="15mm" width="5mm" height="5mm" fill="none" stroke="black" stroke-width = "0.143mm" />
<rect x="65mm" y="15mm" width="5mm" height="5mm" fill="none" stroke="black" stroke-width = "0.143mm" />
<rect x="70mm" y="15mm" width="5mm" height="5mm" fill="none" stroke="black" stroke-width = "0.143mm" />
<rect x="75mm" y="15mm" width="5mm" height="5mm" fill="none" stroke="black" stroke-width = "0.143mm" />

<rect x="5mm" y="20mm" width="5mm" height="5mm" fill="none" stroke="black" stroke-width = "0.143mm" />
<text x="5.21428572386503mm" y="21.0714285746217mm" fill="black" font-family="sans-serif" font-size="1mm">19</text>
<rect x="10mm" y="20mm" width="5mm" height="5mm" fill="none" stroke="black" stroke-width = "0.143mm" />
<rect x="15mm" y="20mm" width="5mm" height="5mm" fill="none" stroke="black" stroke-width = "0.143mm" />
<rect x="20mm" y="20mm" width="5mm" height="5mm" fill="none" stroke="black" stroke-width = "0.143mm" />
<rect x="25mm" y="20mm" width="5mm" height="5mm" fill="none" stroke="black" stroke-width = "0.143mm" />
<rect x="30mm" y="20mm" width="5mm" height="5mm" fill="black" stroke="black" stroke-width = "0.143mm" />
<rect x="35mm" y="20mm" width="5mm" height="5mm" fill="none" stroke="black" stroke-width = "0.143mm" />
<text x="35.214285723865mm" y="21.0714285746217mm" fill="black" font-family="sans-serif" font-size="1mm">20</text>
<rect x="40mm" y="20mm" width="5mm" height="5mm" fill="none" stroke="black" stroke-width = "0.143mm" />
<text x="40.214285723865mm" y="21.0714285746217mm" fill="black" font-family="sans-serif" font-size="1mm">21</text>
<rect x="45mm" y="20mm" width="5mm" height="5mm" fill="none" stroke="black" stroke-width = "0.143mm" />
<rect x="50mm" y="20mm" width="5mm" height="5mm" fill="none" stroke="black" stroke-width = "0.143mm" />
<rect x="55mm" y="20mm" width="5mm" height="5mm" fill="none" stroke="black" stroke-width = "0.143mm" />
<rect x="60mm" y="20mm" width="5mm" height="5mm" fill="none" stroke="black" stroke-width = "0.143mm" />
<rect x="65mm" y="20mm" width="5mm" height="5mm" fill="black" stroke="black" stroke-width = "0.143mm" />
<rect x="70mm" y="20mm" width="5mm" height="5mm" fill="black" stroke="black" stroke-width = "0.143mm" />
<rect x="75mm" y="20mm" width="5mm" height="5mm" fill="black" stroke="black" stroke-width = "0.143mm" />

<rect x="5mm" y="25mm" width="5mm" height="5mm" fill="none" stroke="black" stroke-width = "0.143mm" />
<text x="5.21428572386503mm" y="26.0714285746217mm" fill="black" font-family="sans-serif" font-size="1mm">22</text>
<rect x="10mm" y="25mm" width="5mm" height="5mm" fill="none" stroke="black" stroke-width = "0.143mm" />
<rect x="15mm" y="25mm" width="5mm" height="5mm" fill="none" stroke="black" stroke-width = "0.143mm" />
<rect x="20mm" y="25mm" width="5mm" height="5mm" fill="black" stroke="black" stroke-width = "0.143mm" />
<rect x="25mm" y="25mm" width="5mm" height="5mm" fill="none" stroke="black" stroke-width = "0.143mm" />
<text x="25.214285723865mm" y="26.0714285746217mm" fill="black" font-family="sans-serif" font-size="1mm">23</text>
<rect x="30mm" y="25mm" width="5mm" height="5mm" fill="none" stroke="black" stroke-width = "0.143mm" />
<text x="30.214285723865mm" y="26.0714285746217mm" fill="black" font-family="sans-serif" font-size="1mm">24</text>
<rect x="35mm" y="25mm" width="5mm" height="5mm" fill="none" stroke="black" stroke-width = "0.143mm" />
<rect x="40mm" y="25mm" width="5mm" height="5mm" fill="none" stroke="black" stroke-width = "0.143mm" />
<rect x="45mm" y="25mm" width="5mm" height="5mm" fill="none" stroke="black" stroke-width = "0.143mm" />
<rect x="50mm" y="25mm" width="5mm" height="5mm" fill="none" stroke="black" stroke-width = "0.143mm" />
<rect x="55mm" y="25mm" width="5mm" height="5mm" fill="none" stroke="black" stroke-width = "0.143mm" />
<rect x="60mm" y="25mm" width="5mm" height="5mm" fill="none" stroke="black" stroke-width = "0.143mm" />
<rect x="65mm" y="25mm" width="5mm" height="5mm" fill="none" stroke="black" stroke-width = "0.143mm" />
<text x="65.214285723865mm" y="26.0714285746217mm" fill="black" font-family="sans-serif" font-size="1mm">25</text>
<rect x="70mm" y="25mm" width="5mm" height="5mm" fill="none" stroke="black" stroke-width = "0.143mm" />
<text x="70.214285723865mm" y="26.0714285746217mm" fill="black" font-family="sans-serif" font-size="1mm">26</text>
<rect x="75mm" y="25mm" width="5mm" height="5mm" fill="none" stroke="black" stroke-width = "0.143mm" />
<text x="75.214285723865mm" y="26.0714285746217mm" fill="black" font-family="sans-serif" font-size="1mm">27</text>

<rect x="5mm" y="30mm" width="5mm" height="5mm" fill="black" stroke="black" stroke-width = "0.143mm" />
<rect x="10mm" y="30mm" width="5mm" height="5mm" fill="black" stroke="black" stroke-width = "0.143mm" />
<rect x="15mm" y="30mm" width="5mm" height="5mm" fill="black" stroke="black" stroke-width = "0.143mm" />
<rect x="20mm" y="30mm" width="5mm" height="5mm" fill="none" stroke="black" stroke-width = "0.143mm" />
<text x="20.214285723865mm" y="31.0714285746217mm" fill="black" font-family="sans-serif" font-size="1mm">28</text>
<rect x="25mm" y="30mm" width="5mm" height="5mm" fill="none" stroke="black" stroke-width = "0.143mm" />
<rect x="30mm" y="30mm" width="5mm" height="5mm" fill="none" stroke="black" stroke-width = "0.143mm" />
<rect x="35mm" y="30mm" width="5mm" height="5mm" fill="black" stroke="black" stroke-width = "0.143mm" />
<rect x="40mm" y="30mm" width="5mm" height="5mm" fill="none" stroke="black" stroke-width = "0.143mm" />
<text x="40.214285723865mm" y="31.0714285746217mm" fill="black" font-family="sans-serif" font-size="1mm">29</text>
<rect x="45mm" y="30mm" width="5mm" height="5mm" fill="none" stroke="black" stroke-width = "0.143mm" />
<rect x="50mm" y="30mm" width="5mm" height="5mm" fill="none" stroke="black" stroke-width = "0.143mm" />
<rect x="55mm" y="30mm" width="5mm" height="5mm" fill="black" stroke="black" stroke-width = "0.143mm" />
<rect x="60mm" y="30mm" width="5mm" height="5mm" fill="none" stroke="black" stroke-width = "0.143mm" />
<text x="60.214285723865mm" y="31.0714285746217mm" fill="black" font-family="sans-serif" font-size="1mm">30</text>
<rect x="65mm" y="30mm" width="5mm" height="5mm" fill="none" stroke="black" stroke-width = "0.143mm" />
<rect x="70mm" y="30mm" width="5mm" height="5mm" fill="none" stroke="black" stroke-width = "0.143mm" />
<rect x="75mm" y="30mm" width="5mm" height="5mm" fill="none" stroke="black" stroke-width = "0.143mm" />

<rect x="5mm" y="35mm" width="5mm" height="5mm" fill="none" stroke="black" stroke-width = "0.143mm" />
<text x="5.21428572386503mm" y="36.0714285746217mm" fill="black" font-family="sans-serif" font-size="1mm">31</text>
<rect x="10mm" y="35mm" width="5mm" height="5mm" fill="none" stroke="black" stroke-width = "0.143mm" />
<text x="10.214285723865mm" y="36.0714285746217mm" fill="black" font-family="sans-serif" font-size="1mm">32</text>
<rect x="15mm" y="35mm" width="5mm" height="5mm" fill="none" stroke="black" stroke-width = "0.143mm" />
<text x="15.214285723865mm" y="36.0714285746217mm" fill="black" font-family="sans-serif" font-size="1mm">33</text>
<rect x="20mm" y="35mm" width="5mm" height="5mm" fill="none" stroke="black" stroke-width = "0.143mm" />
<rect x="25mm" y="35mm" width="5mm" height="5mm" fill="none" stroke="black" stroke-width = "0.143mm" />
<rect x="30mm" y="35mm" width="5mm" height="5mm" fill="none" stroke="black" stroke-width = "0.143mm" />
<rect x="35mm" y="35mm" width="5mm" height="5mm" fill="black" stroke="black" stroke-width = "0.143mm" />
<rect x="40mm" y="35mm" width="5mm" height="5mm" fill="none" stroke="black" stroke-width = "0.143mm" />
<text x="40.214285723865mm" y="36.0714285746217mm" fill="black" font-family="sans-serif" font-size="1mm">34</text>
<rect x="45mm" y="35mm" width="5mm" height="5mm" fill="none" stroke="black" stroke-width = "0.143mm" />
<rect x="50mm" y="35mm" width="5mm" height="5mm" fill="none" stroke="black" stroke-width = "0.143mm" />
<rect x="55mm" y="35mm" width="5mm" height="5mm" fill="black" stroke="black" stroke-width = "0.143mm" />
<rect x="60mm" y="35mm" width="5mm" height="5mm" fill="none" stroke="black" stroke-width = "0.143mm" />
<text x="60.214285723865mm" y="36.0714285746217mm" fill="black" font-family="sans-serif" font-size="1mm">35</text>
<rect x="65mm" y="35mm" width="5mm" height="5mm" fill="none" stroke="black" stroke-width = "0.143mm" />
<rect x="70mm" y="35mm" width="5mm" height="5mm" fill="none" stroke="black" stroke-width = "0.143mm" />
<rect x="75mm" y="35mm" width="5mm" height="5mm" fill="none" stroke="black" stroke-width = "0.143mm" />

<rect x="5mm" y="40mm" width="5mm" height="5mm" fill="none" stroke="black" stroke-width = "0.143mm" />
<text x="5.21428572386503mm" y="41.0714285746217mm" fill="black" font-family="sans-serif" font-size="1mm">36</text>
<rect x="10mm" y="40mm" width="5mm" height="5mm" fill="none" stroke="black" stroke-width = "0.143mm" />
<rect x="15mm" y="40mm" width="5mm" height="5mm" fill="none" stroke="black" stroke-width = "0.143mm" />
<rect x="20mm" y="40mm" width="5mm" height="5mm" fill="none" stroke="black" stroke-width = "0.143mm" />
<rect x="25mm" y="40mm" width="5mm" height="5mm" fill="black" stroke="black" stroke-width = "0.143mm" />
<rect x="30mm" y="40mm" width="5mm" height="5mm" fill="none" stroke="black" stroke-width = "0.143mm" />
<text x="30.214285723865mm" y="41.0714285746217mm" fill="black" font-family="sans-serif" font-size="1mm">37</text>
<rect x="35mm" y="40mm" width="5mm" height="5mm" fill="none" stroke="black" stroke-width = "0.143mm" />
<text x="35.214285723865mm" y="41.0714285746217mm" fill="black" font-family="sans-serif" font-size="1mm">38</text>
<rect x="40mm" y="40mm" width="5mm" height="5mm" fill="none" stroke="black" stroke-width = "0.143mm" />
<rect x="45mm" y="40mm" width="5mm" height="5mm" fill="none" stroke="black" stroke-width = "0.143mm" />
<rect x="50mm" y="40mm" width="5mm" height="5mm" fill="none" stroke="black" stroke-width = "0.143mm" />
<rect x="55mm" y="40mm" width="5mm" height="5mm" fill="black" stroke="black" stroke-width = "0.143mm" />
<rect x="60mm" y="40mm" width="5mm" height="5mm" fill="none" stroke="black" stroke-width = "0.143mm" />
<text x="60.214285723865mm" y="41.0714285746217mm" fill="black" font-family="sans-serif" font-size="1mm">39</text>
<rect x="65mm" y="40mm" width="5mm" height="5mm" fill="none" stroke="black" stroke-width = "0.143mm" />
<rect x="70mm" y="40mm" width="5mm" height="5mm" fill="none" stroke="black" stroke-width = "0.143mm" />
<rect x="75mm" y="40mm" width="5mm" height="5mm" fill="none" stroke="black" stroke-width = "0.143mm" />

<rect x="5mm" y="45mm" width="5mm" height="5mm" fill="none" stroke="black" stroke-width = "0.143mm" />
<text x="5.21428572386503mm" y="46.0714285746217mm" fill="black" font-family="sans-serif" font-size="1mm">40</text>
<rect x="10mm" y="45mm" width="5mm" height="5mm" fill="none" stroke="black" stroke-width = "0.143mm" />
<rect x="15mm" y="45mm" width="5mm" height="5mm" fill="none" stroke="black" stroke-width = "0.143mm" />
<rect x="20mm" y="45mm" width="5mm" height="5mm" fill="none" stroke="black" stroke-width = "0.143mm" />
<rect x="25mm" y="45mm" width="5mm" height="5mm" fill="black" stroke="black" stroke-width = "0.143mm" />
<rect x="30mm" y="45mm" width="5mm" height="5mm" fill="none" stroke="black" stroke-width = "0.143mm" />
<text x="30.214285723865mm" y="46.0714285746217mm" fill="black" font-family="sans-serif" font-size="1mm">41</text>
<rect x="35mm" y="45mm" width="5mm" height="5mm" fill="none" stroke="black" stroke-width = "0.143mm" />
<rect x="40mm" y="45mm" width="5mm" height="5mm" fill="none" stroke="black" stroke-width = "0.143mm" />
<rect x="45mm" y="45mm" width="5mm" height="5mm" fill="black" stroke="black" stroke-width = "0.143mm" />
<rect x="50mm" y="45mm" width="5mm" height="5mm" fill="none" stroke="black" stroke-width = "0.143mm" />
<text x="50.214285723865mm" y="46.0714285746217mm" fill="black" font-family="sans-serif" font-size="1mm">42</text>
<rect x="55mm" y="45mm" width="5mm" height="5mm" fill="none" stroke="black" stroke-width = "0.143mm" />
<text x="55.214285723865mm" y="46.0714285746217mm" fill="black" font-family="sans-serif" font-size="1mm">43</text>
<rect x="60mm" y="45mm" width="5mm" height="5mm" fill="none" stroke="black" stroke-width = "0.143mm" />
<rect x="65mm" y="45mm" width="5mm" height="5mm" fill="none" stroke="black" stroke-width = "0.143mm" />
<rect x="70mm" y="45mm" width="5mm" height="5mm" fill="none" stroke="black" stroke-width = "0.143mm" />
<rect x="75mm" y="45mm" width="5mm" height="5mm" fill="none" stroke="black" stroke-width = "0.143mm" />

<rect x="5mm" y="50mm" width="5mm" height="5mm" fill="none" stroke="black" stroke-width = "0.143mm" />
<text x="5.21428572386503mm" y="51.0714285746217mm" fill="black" font-family="sans-serif" font-size="1mm">44</text>
<rect x="10mm" y="50mm" width="5mm" height="5mm" fill="none" stroke="black" stroke-width = "0.143mm" />
<rect x="15mm" y="50mm" width="5mm" height="5mm" fill="none" stroke="black" stroke-width = "0.143mm" />
<rect x="20mm" y="50mm" width="5mm" height="5mm" fill="none" stroke="black" stroke-width = "0.143mm" />
<rect x="25mm" y="50mm" width="5mm" height="5mm" fill="black" stroke="black" stroke-width = "0.143mm" />
<rect x="30mm" y="50mm" width="5mm" height="5mm" fill="none" stroke="black" stroke-width = "0.143mm" />
<text x="30.214285723865mm" y="51.0714285746217mm" fill="black" font-family="sans-serif" font-size="1mm">45</text>
<rect x="35mm" y="50mm" width="5mm" height="5mm" fill="none" stroke="black" stroke-width = "0.143mm" />
<rect x="40mm" y="50mm" width="5mm" height="5mm" fill="none" stroke="black" stroke-width = "0.143mm" />
<rect x="45mm" y="50mm" width="5mm" height="5mm" fill="black" stroke="black" stroke-width = "0.143mm" />
<rect x="50mm" y="50mm" width="5mm" height="5mm" fill="none" stroke="black" stroke-width = "0.143mm" />
<text x="50.214285723865mm" y="51.0714285746217mm" fill="black" font-family="sans-serif" font-size="1mm">46</text>
<rect x="55mm" y="50mm" width="5mm" height="5mm" fill="none" stroke="black" stroke-width = "0.143mm" />
<rect x="60mm" y="50mm" width="5mm" height="5mm" fill="none" stroke="black" stroke-width = "0.143mm" />
<rect x="65mm" y="50mm" width="5mm" height="5mm" fill="black" stroke="black" stroke-width = "0.143mm" />
<rect x="70mm" y="50mm" width="5mm" height="5mm" fill="black" stroke="black" stroke-width = "0.143mm" />
<rect x="75mm" y="50mm" width="5mm" height="5mm" fill="black" stroke="black" stroke-width = "0.143mm" />

<rect x="5mm" y="55mm" width="5mm" height="5mm" fill="none" stroke="black" stroke-width = "0.143mm" />
<text x="5.21428572386503mm" y="56.0714285746217mm" fill="black" font-family="sans-serif" font-size="1mm">47</text>
<rect x="10mm" y="55mm" width="5mm" height="5mm" fill="none" stroke="black" stroke-width = "0.143mm" />
<rect x="15mm" y="55mm" width="5mm" height="5mm" fill="none" stroke="black" stroke-width = "0.143mm" />
<rect x="20mm" y="55mm" width="5mm" height="5mm" fill="none" stroke="black" stroke-width = "0.143mm" />
<rect x="25mm" y="55mm" width="5mm" height="5mm" fill="none" stroke="black" stroke-width = "0.143mm" />
<text x="25.214285723865mm" y="56.0714285746217mm" fill="black" font-family="sans-serif" font-size="1mm">48</text>
<rect x="30mm" y="55mm" width="5mm" height="5mm" fill="none" stroke="black" stroke-width = "0.143mm" />
<rect x="35mm" y="55mm" width="5mm" height="5mm" fill="none" stroke="black" stroke-width = "0.143mm" />
<rect x="40mm" y="55mm" width="5mm" height="5mm" fill="none" stroke="black" stroke-width = "0.143mm" />
<rect x="45mm" y="55mm" width="5mm" height="5mm" fill="none" stroke="black" stroke-width = "0.143mm" />
<text x="45.214285723865mm" y="56.0714285746217mm" fill="black" font-family="sans-serif" font-size="1mm">49</text>
<rect x="50mm" y="55mm" width="5mm" height="5mm" fill="none" stroke="black" stroke-width = "0.143mm" />
<rect x="55mm" y="55mm" width="5mm" height="5mm" fill="none" stroke="black" stroke-width = "0.143mm" />
<rect x="60mm" y="55mm" width="5mm" height="5mm" fill="black" stroke="black" stroke-width = "0.143mm" />
<rect x="65mm" y="55mm" width="5mm" height="5mm" fill="none" stroke="black" stroke-width = "0.143mm" />
<text x="65.214285723865mm" y="56.0714285746217mm" fill="black" font-family="sans-serif" font-size="1mm">50</text>
<rect x="70mm" y="55mm" width="5mm" height="5mm" fill="none" stroke="black" stroke-width = "0.143mm" />
<text x="70.214285723865mm" y="56.0714285746217mm" fill="black" font-family="sans-serif" font-size="1mm">51</text>
<rect x="75mm" y="55mm" width="5mm" height="5mm" fill="none" stroke="black" stroke-width = "0.143mm" />
<text x="75.214285723865mm" y="56.0714285746217mm" fill="black" font-family="sans-serif" font-size="1mm">52</text>

<rect x="5mm" y="60mm" width="5mm" height="5mm" fill="black" stroke="black" stroke-width = "0.143mm" />
<rect x="10mm" y="60mm" width="5mm" height="5mm" fill="black" stroke="black" stroke-width = "0.143mm" />
<rect x="15mm" y="60mm" width="5mm" height="5mm" fill="black" stroke="black" stroke-width = "0.143mm" />
<rect x="20mm" y="60mm" width="5mm" height="5mm" fill="none" stroke="black" stroke-width = "0.143mm" />
<text x="20.214285723865mm" y="61.0714285746217mm" fill="black" font-family="sans-serif" font-size="1mm">53</text>
<rect x="25mm" y="60mm" width="5mm" height="5mm" fill="none" stroke="black" stroke-width = "0.143mm" />
<rect x="30mm" y="60mm" width="5mm" height="5mm" fill="none" stroke="black" stroke-width = "0.143mm" />
<rect x="35mm" y="60mm" width="5mm" height="5mm" fill="none" stroke="black" stroke-width = "0.143mm" />
<rect x="40mm" y="60mm" width="5mm" height="5mm" fill="none" stroke="black" stroke-width = "0.143mm" />
<rect x="45mm" y="60mm" width="5mm" height="5mm" fill="none" stroke="black" stroke-width = "0.143mm" />
<rect x="50mm" y="60mm" width="5mm" height="5mm" fill="black" stroke="black" stroke-width = "0.143mm" />
<rect x="55mm" y="60mm" width="5mm" height="5mm" fill="none" stroke="black" stroke-width = "0.143mm" />
<text x="55.214285723865mm" y="61.0714285746217mm" fill="black" font-family="sans-serif" font-size="1mm">54</text>
<rect x="60mm" y="60mm" width="5mm" height="5mm" fill="none" stroke="black" stroke-width = "0.143mm" />
<text x="60.214285723865mm" y="61.0714285746217mm" fill="black" font-family="sans-serif" font-size="1mm">55</text>
<rect x="65mm" y="60mm" width="5mm" height="5mm" fill="none" stroke="black" stroke-width = "0.143mm" />
<rect x="70mm" y="60mm" width="5mm" height="5mm" fill="none" stroke="black" stroke-width = "0.143mm" />
<rect x="75mm" y="60mm" width="5mm" height="5mm" fill="none" stroke="black" stroke-width = "0.143mm" />

<rect x="5mm" y="65mm" width="5mm" height="5mm" fill="none" stroke="black" stroke-width = "0.143mm" />
<text x="5.21428572386503mm" y="66.0714285746217mm" fill="black" font-family="sans-serif" font-size="1mm">56</text>
<rect x="10mm" y="65mm" width="5mm" height="5mm" fill="none" stroke="black" stroke-width = "0.143mm" />
<text x="10.214285723865mm" y="66.0714285746217mm" fill="black" font-family="sans-serif" font-size="1mm">57</text>
<rect x="15mm" y="65mm" width="5mm" height="5mm" fill="none" stroke="black" stroke-width = "0.143mm" />
<text x="15.214285723865mm" y="66.0714285746217mm" fill="black" font-family="sans-serif" font-size="1mm">58</text>
<rect x="20mm" y="65mm" width="5mm" height="5mm" fill="none" stroke="black" stroke-width = "0.143mm" />
<rect x="25mm" y="65mm" width="5mm" height="5mm" fill="none" stroke="black" stroke-width = "0.143mm" />
<rect x="30mm" y="65mm" width="5mm" height="5mm" fill="none" stroke="black" stroke-width = "0.143mm" />
<rect x="35mm" y="65mm" width="5mm" height="5mm" fill="none" stroke="black" stroke-width = "0.143mm" />
<rect x="40mm" y="65mm" width="5mm" height="5mm" fill="black" stroke="black" stroke-width = "0.143mm" />
<rect x="45mm" y="65mm" width="5mm" height="5mm" fill="none" stroke="black" stroke-width = "0.143mm" />
<text x="45.214285723865mm" y="66.0714285746217mm" fill="black" font-family="sans-serif" font-size="1mm">59</text>
<rect x="50mm" y="65mm" width="5mm" height="5mm" fill="none" stroke="black" stroke-width = "0.143mm" />
<text x="50.214285723865mm" y="66.0714285746217mm" fill="black" font-family="sans-serif" font-size="1mm">60</text>
<rect x="55mm" y="65mm" width="5mm" height="5mm" fill="none" stroke="black" stroke-width = "0.143mm" />
<rect x="60mm" y="65mm" width="5mm" height="5mm" fill="none" stroke="black" stroke-width = "0.143mm" />
<rect x="65mm" y="65mm" width="5mm" height="5mm" fill="none" stroke="black" stroke-width = "0.143mm" />
<rect x="70mm" y="65mm" width="5mm" height="5mm" fill="none" stroke="black" stroke-width = "0.143mm" />
<rect x="75mm" y="65mm" width="5mm" height="5mm" fill="none" stroke="black" stroke-width = "0.143mm" />

<rect x="5mm" y="70mm" width="5mm" height="5mm" fill="none" stroke="black" stroke-width = "0.143mm" />
<text x="5.21428572386503mm" y="71.0714285746217mm" fill="black" font-family="sans-serif" font-size="1mm">61</text>
<rect x="10mm" y="70mm" width="5mm" height="5mm" fill="none" stroke="black" stroke-width = "0.143mm" />
<rect x="15mm" y="70mm" width="5mm" height="5mm" fill="none" stroke="black" stroke-width = "0.143mm" />
<rect x="20mm" y="70mm" width="5mm" height="5mm" fill="none" stroke="black" stroke-width = "0.143mm" />
<rect x="25mm" y="70mm" width="5mm" height="5mm" fill="none" stroke="black" stroke-width = "0.143mm" />
<rect x="30mm" y="70mm" width="5mm" height="5mm" fill="none" stroke="black" stroke-width = "0.143mm" />
<rect x="35mm" y="70mm" width="5mm" height="5mm" fill="none" stroke="black" stroke-width = "0.143mm" />
<rect x="40mm" y="70mm" width="5mm" height="5mm" fill="black" stroke="black" stroke-width = "0.143mm" />
<rect x="45mm" y="70mm" width="5mm" height="5mm" fill="none" stroke="black" stroke-width = "0.143mm" />
<text x="45.214285723865mm" y="71.0714285746217mm" fill="black" font-family="sans-serif" font-size="1mm">62</text>
<rect x="50mm" y="70mm" width="5mm" height="5mm" fill="none" stroke="black" stroke-width = "0.143mm" />
<rect x="55mm" y="70mm" width="5mm" height="5mm" fill="none" stroke="black" stroke-width = "0.143mm" />
<rect x="60mm" y="70mm" width="5mm" height="5mm" fill="none" stroke="black" stroke-width = "0.143mm" />
<rect x="65mm" y="70mm" width="5mm" height="5mm" fill="none" stroke="black" stroke-width = "0.143mm" />
<rect x="70mm" y="70mm" width="5mm" height="5mm" fill="none" stroke="black" stroke-width = "0.143mm" />
<rect x="75mm" y="70mm" width="5mm" height="5mm" fill="none" stroke="black" stroke-width = "0.143mm" />

<rect x="5mm" y="75mm" width="5mm" height="5mm" fill="none" stroke="black" stroke-width = "0.143mm" />
<text x="5.21428572386503mm" y="76.0714285746217mm" fill="black" font-family="sans-serif" font-size="1mm">63</text>
<rect x="10mm" y="75mm" width="5mm" height="5mm" fill="none" stroke="black" stroke-width = "0.143mm" />
<rect x="15mm" y="75mm" width="5mm" height="5mm" fill="none" stroke="black" stroke-width = "0.143mm" />
<rect x="20mm" y="75mm" width="5mm" height="5mm" fill="black" stroke="black" stroke-width = "0.143mm" />
<rect x="25mm" y="75mm" width="5mm" height="5mm" fill="none" stroke="black" stroke-width = "0.143mm" />
<text x="25.214285723865mm" y="76.0714285746217mm" fill="black" font-family="sans-serif" font-size="1mm">64</text>
<rect x="30mm" y="75mm" width="5mm" height="5mm" fill="none" stroke="black" stroke-width = "0.143mm" />
<rect x="35mm" y="75mm" width="5mm" height="5mm" fill="none" stroke="black" stroke-width = "0.143mm" />
<rect x="40mm" y="75mm" width="5mm" height="5mm" fill="black" stroke="black" stroke-width = "0.143mm" />
<rect x="45mm" y="75mm" width="5mm" height="5mm" fill="none" stroke="black" stroke-width = "0.143mm" />
<text x="45.214285723865mm" y="76.0714285746217mm" fill="black" font-family="sans-serif" font-size="1mm">65</text>
<rect x="50mm" y="75mm" width="5mm" height="5mm" fill="none" stroke="black" stroke-width = "0.143mm" />
<rect x="55mm" y="75mm" width="5mm" height="5mm" fill="none" stroke="black" stroke-width = "0.143mm" />
<rect x="60mm" y="75mm" width="5mm" height="5mm" fill="none" stroke="black" stroke-width = "0.143mm" />
<rect x="65mm" y="75mm" width="5mm" height="5mm" fill="none" stroke="black" stroke-width = "0.143mm" />
<rect x="70mm" y="75mm" width="5mm" height="5mm" fill="none" stroke="black" stroke-width = "0.143mm" />
<rect x="75mm" y="75mm" width="5mm" height="5mm" fill="none" stroke="black" stroke-width = "0.143mm" />

</svg>
